<?xml version="1.0" encoding="UTF-8"?><svg xmlns="http://www.w3.org/2000/svg" xmlns:xlink="http://www.w3.org/1999/xlink" height="233.5" preserveAspectRatio="xMidYMid meet" version="1.0" viewBox="145.1 94.0 130.5 233.5" width="130.5" zoomAndPan="magnify"><g><g id="change1_1"><path d="M 228.992188 325.984375 L 265.777344 325.984375 L 265.777344 307.566406 L 228.992188 307.566406 L 228.992188 325.984375" fill="#f4f4f4"/></g><path d="M 2289.921875 992.15625 L 2657.773438 992.15625 L 2657.773438 1176.335938 L 2289.921875 1176.335938 Z M 2289.921875 992.15625" fill="none" stroke="#181821" stroke-linecap="round" stroke-linejoin="round" stroke-miterlimit="10" stroke-width="30" transform="matrix(.1 0 0 -.1 0 425.2)"/><g id="change1_2"><path d="M 222.121094 171.105469 L 236.664062 184.519531 C 220.75 202.765625 234.742188 237.609375 234.742188 237.609375 L 185.679688 219.558594 C 191.820312 193.957031 184.796875 184.519531 184.796875 184.519531 L 222.121094 171.105469" fill="#f4f4f4"/></g><path d="M 2221.210938 2540.945312 L 2366.640625 2406.804688 C 2207.5 2224.34375 2347.421875 1875.90625 2347.421875 1875.90625 L 1856.796875 2056.414062 C 1918.203125 2312.429688 1847.96875 2406.804688 1847.96875 2406.804688 Z M 2221.210938 2540.945312" fill="none" stroke="#181821" stroke-linecap="round" stroke-linejoin="round" stroke-miterlimit="10" stroke-width="30" transform="matrix(.1 0 0 -.1 0 425.2)"/><g id="change1_3"><path d="M 210.945312 235.21875 L 215.914062 236.445312 L 230.742188 176.507812 L 225.773438 175.277344 L 210.945312 235.21875" fill="#f4f4f4"/></g><path d="M 2109.453125 1899.8125 L 2159.140625 1887.546875 L 2307.421875 2486.921875 L 2257.734375 2499.226562 Z M 2109.453125 1899.8125" fill="none" stroke="#181821" stroke-linecap="round" stroke-linejoin="round" stroke-miterlimit="10" stroke-width="30" transform="matrix(.1 0 0 -.1 0 425.2)"/><g id="change1_4"><path d="M 184.597656 233.710938 L 189.566406 234.941406 L 204.394531 175 L 199.425781 173.769531 L 184.597656 233.710938" fill="#f4f4f4"/></g><path d="M 1845.976562 1914.890625 L 1895.664062 1902.585938 L 2043.945312 2502 L 1994.257812 2514.304688 Z M 1845.976562 1914.890625" fill="none" stroke="#181821" stroke-linecap="round" stroke-linejoin="round" stroke-miterlimit="10" stroke-width="30" transform="matrix(.1 0 0 -.1 0 425.2)"/><g id="change1_5"><path d="M 213.625 215.570312 C 213.625 221.109375 209.136719 225.597656 203.601562 225.597656 C 198.0625 225.597656 193.574219 221.109375 193.574219 215.570312 C 193.574219 210.03125 198.0625 205.546875 203.601562 205.546875 C 209.136719 205.546875 213.625 210.03125 213.625 215.570312" fill="#f4f4f4"/></g><path d="M 2136.25 2096.296875 C 2136.25 2040.90625 2091.367188 1996.023438 2036.015625 1996.023438 C 1980.625 1996.023438 1935.742188 2040.90625 1935.742188 2096.296875 C 1935.742188 2151.6875 1980.625 2196.53125 2036.015625 2196.53125 C 2091.367188 2196.53125 2136.25 2151.6875 2136.25 2096.296875 Z M 2136.25 2096.296875" fill="none" stroke="#181821" stroke-linecap="round" stroke-linejoin="round" stroke-miterlimit="10" stroke-width="30" transform="matrix(.1 0 0 -.1 0 425.2)"/><g id="change1_6"><path d="M 198.171875 210.03125 C 197.628906 209.488281 197.152344 208.90625 196.703125 208.308594 C 194.78125 210.132812 193.574219 212.707031 193.574219 215.570312 C 193.574219 221.109375 198.0625 225.597656 203.601562 225.597656 C 206.398438 225.597656 208.925781 224.449219 210.742188 222.601562 C 206.554688 218.410156 202.363281 214.222656 198.171875 210.03125" fill="#f4f4f4"/></g><path d="M 1981.71875 2151.6875 C 1976.289062 2157.117188 1971.523438 2162.9375 1967.03125 2168.914062 C 1947.8125 2150.671875 1935.742188 2124.929688 1935.742188 2096.296875 C 1935.742188 2040.90625 1980.625 1996.023438 2036.015625 1996.023438 C 2063.984375 1996.023438 2089.257812 2007.507812 2107.421875 2025.984375 C 2065.546875 2067.898438 2023.632812 2109.773438 1981.71875 2151.6875 Z M 1981.71875 2151.6875" fill="none" stroke="#181821" stroke-linecap="round" stroke-linejoin="round" stroke-miterlimit="10" stroke-width="30" transform="matrix(.1 0 0 -.1 0 425.2)"/><g id="change1_7"><path d="M 207.242188 215.570312 C 207.242188 217.585938 205.613281 219.214844 203.601562 219.214844 C 201.589844 219.214844 199.957031 217.585938 199.957031 215.570312 C 199.957031 213.558594 201.589844 211.929688 203.601562 211.929688 C 205.613281 211.929688 207.242188 213.558594 207.242188 215.570312" fill="#f4f4f4"/></g><path d="M 2072.421875 2096.296875 C 2072.421875 2076.140625 2056.132812 2059.851562 2036.015625 2059.851562 C 2015.898438 2059.851562 1999.570312 2076.140625 1999.570312 2096.296875 C 1999.570312 2116.414062 2015.898438 2132.703125 2036.015625 2132.703125 C 2056.132812 2132.703125 2072.421875 2116.414062 2072.421875 2096.296875 Z M 2072.421875 2096.296875" fill="none" stroke="#181821" stroke-linecap="round" stroke-linejoin="round" stroke-miterlimit="10" stroke-width="30" transform="matrix(.1 0 0 -.1 0 425.2)"/><g id="change1_8"><path d="M 214.683594 100.554688 C 204.898438 98.453125 183.308594 104.269531 175.605469 110.507812 C 158.15625 124.640625 153.363281 154.261719 166.035156 175.023438 C 168.8125 179.574219 175.003906 184.128906 180.527344 184.519531 C 180.554688 184.523438 229.4375 188.003906 234.867188 144.542969 C 234.867188 144.542969 237.585938 105.46875 214.683594 100.554688" fill="#f4f4f4"/></g><path d="M 2146.835938 3246.453125 C 2048.984375 3267.46875 1833.085938 3209.304688 1756.054688 3146.921875 C 1581.5625 3005.59375 1533.632812 2709.382812 1660.351562 2501.765625 C 1688.125 2456.257812 1750.039062 2410.710938 1805.273438 2406.804688 C 1805.546875 2406.765625 2294.375 2371.960938 2348.671875 2806.570312 C 2348.671875 2806.570312 2375.859375 3197.3125 2146.835938 3246.453125 Z M 2146.835938 3246.453125" fill="none" stroke="#181821" stroke-linecap="round" stroke-linejoin="round" stroke-miterlimit="10" stroke-width="30" transform="matrix(.1 0 0 -.1 0 425.2)"/><g id="change1_9"><path d="M 205.472656 150.234375 L 190.164062 150.234375 C 188.667969 154.640625 186.996094 159.011719 185.066406 163.25 C 188.226562 164.925781 191.828125 165.878906 195.65625 165.878906 C 202.628906 165.878906 208.859375 162.726562 213.007812 157.769531 C 210.496094 155.257812 207.984375 152.742188 205.472656 150.234375" fill="#f4f4f4"/></g><path d="M 2054.726562 2749.65625 L 1901.640625 2749.65625 C 1886.679688 2705.59375 1869.960938 2661.882812 1850.664062 2619.5 C 1882.265625 2602.742188 1918.28125 2593.210938 1956.5625 2593.210938 C 2026.289062 2593.210938 2088.59375 2624.734375 2130.078125 2674.304688 C 2104.960938 2699.421875 2079.84375 2724.578125 2054.726562 2749.65625 Z M 2054.726562 2749.65625" fill="none" stroke="#181821" stroke-linecap="round" stroke-linejoin="round" stroke-miterlimit="10" stroke-width="30" transform="matrix(.1 0 0 -.1 0 425.2)"/><g id="change1_10"><path d="M 205.472656 126.15625 L 190.164062 126.15625 C 188.667969 121.75 186.996094 117.378906 185.066406 113.140625 C 188.226562 111.460938 191.828125 110.507812 195.65625 110.507812 C 202.628906 110.507812 208.859375 113.660156 213.007812 118.621094 C 210.496094 121.132812 207.984375 123.644531 205.472656 126.15625" fill="#f4f4f4"/></g><path d="M 2054.726562 2990.4375 L 1901.640625 2990.4375 C 1886.679688 3034.5 1869.960938 3078.210938 1850.664062 3120.59375 C 1882.265625 3137.390625 1918.28125 3146.921875 1956.5625 3146.921875 C 2026.289062 3146.921875 2088.59375 3115.398438 2130.078125 3065.789062 C 2104.960938 3040.671875 2079.84375 3015.554688 2054.726562 2990.4375 Z M 2054.726562 2990.4375" fill="none" stroke="#181821" stroke-linecap="round" stroke-linejoin="round" stroke-miterlimit="10" stroke-width="30" transform="matrix(.1 0 0 -.1 0 425.2)"/><g id="change1_11"><path d="M 178.089844 133.410156 L 185.066406 147.035156 C 181.824219 150.375 178.699219 153.855469 175.804688 157.507812 C 172.871094 155.460938 170.378906 152.6875 168.632812 149.277344 C 165.457031 143.074219 165.421875 136.09375 167.945312 130.140625 C 171.324219 131.230469 174.707031 132.320312 178.089844 133.410156" fill="#f4f4f4"/></g><path d="M 1780.898438 2917.898438 L 1850.664062 2781.648438 C 1818.242188 2748.25 1786.992188 2713.445312 1758.046875 2676.921875 C 1728.710938 2697.390625 1703.789062 2725.125 1686.328125 2759.226562 C 1654.570312 2821.257812 1654.21875 2891.0625 1679.453125 2950.59375 C 1713.242188 2939.695312 1747.070312 2928.796875 1780.898438 2917.898438 Z M 1780.898438 2917.898438" fill="none" stroke="#181821" stroke-linecap="round" stroke-linejoin="round" stroke-miterlimit="10" stroke-width="30" transform="matrix(.1 0 0 -.1 0 425.2)"/><g id="change1_12"><path d="M 218.285156 137.839844 C 218.285156 150.335938 208.152344 160.46875 195.65625 160.46875 C 183.160156 160.46875 173.03125 150.335938 173.03125 137.839844 C 173.03125 125.34375 183.160156 115.214844 195.65625 115.214844 C 208.152344 115.214844 218.285156 125.34375 218.285156 137.839844" fill="#f4f4f4"/></g><path d="M 2182.851562 2873.601562 C 2182.851562 2748.640625 2081.523438 2647.3125 1956.5625 2647.3125 C 1831.601562 2647.3125 1730.3125 2748.640625 1730.3125 2873.601562 C 1730.3125 2998.5625 1831.601562 3099.851562 1956.5625 3099.851562 C 2081.523438 3099.851562 2182.851562 2998.5625 2182.851562 2873.601562 Z M 2182.851562 2873.601562" fill="none" stroke="#181821" stroke-linecap="round" stroke-linejoin="round" stroke-miterlimit="10" stroke-width="30" transform="matrix(.1 0 0 -.1 0 425.2)"/><g id="change1_13"><path d="M 208.84375 137.839844 C 208.84375 145.125 202.941406 151.027344 195.65625 151.027344 C 188.375 151.027344 182.46875 145.125 182.46875 137.839844 C 182.46875 130.558594 188.375 124.652344 195.65625 124.652344 C 202.941406 124.652344 208.84375 130.558594 208.84375 137.839844" fill="#f4f4f4"/></g><path d="M 2088.4375 2873.601562 C 2088.4375 2800.75 2029.414062 2741.726562 1956.5625 2741.726562 C 1883.75 2741.726562 1824.6875 2800.75 1824.6875 2873.601562 C 1824.6875 2946.414062 1883.75 3005.476562 1956.5625 3005.476562 C 2029.414062 3005.476562 2088.4375 2946.414062 2088.4375 2873.601562 Z M 2088.4375 2873.601562" fill="none" stroke="#181821" stroke-linecap="round" stroke-linejoin="round" stroke-miterlimit="10" stroke-width="30" transform="matrix(.1 0 0 -.1 0 425.2)"/><g id="change1_14"><path d="M 201.808594 137.839844 C 201.808594 141.234375 199.054688 143.988281 195.65625 143.988281 C 192.261719 143.988281 189.507812 141.234375 189.507812 137.839844 C 189.507812 134.445312 192.261719 131.691406 195.65625 131.691406 C 199.054688 131.691406 201.808594 134.445312 201.808594 137.839844" fill="#f4f4f4"/></g><path d="M 2018.085938 2873.601562 C 2018.085938 2839.65625 1990.546875 2812.117188 1956.5625 2812.117188 C 1922.617188 2812.117188 1895.078125 2839.65625 1895.078125 2873.601562 C 1895.078125 2907.546875 1922.617188 2935.085938 1956.5625 2935.085938 C 1990.546875 2935.085938 2018.085938 2907.546875 2018.085938 2873.601562 Z M 2018.085938 2873.601562" fill="none" stroke="#181821" stroke-linecap="round" stroke-linejoin="round" stroke-miterlimit="10" stroke-width="30" transform="matrix(.1 0 0 -.1 0 425.2)"/><g id="change1_15"><path d="M 261.589844 157.8125 L 261.910156 155.5625 C 261.910156 155.5625 257.484375 152 255.507812 148.320312 C 255.507812 148.320312 252.472656 141.234375 250.878906 135.996094 C 249.503906 130.648438 247.390625 125.253906 244.523438 119.265625 C 236.925781 103.386719 230.566406 95.824219 215.644531 100.660156 C 210.128906 102.449219 205.382812 107.054688 201.8125 113.394531 C 208.863281 117.558594 213.675781 125.246094 213.675781 133.890625 C 213.675781 144.234375 206.789062 153.199219 197.421875 156.40625 C 204.070312 165.773438 211.222656 175.351562 219.957031 182.179688 C 220.960938 182.960938 221.960938 183.738281 222.960938 184.519531 L 249.066406 184.519531 C 249.066406 184.519531 254.125 185.257812 254.125 182.386719 L 252.332031 158.660156 C 252.335938 158.636719 252.339844 158.613281 252.339844 158.589844 L 261.589844 157.8125" fill="#f4f4f4"/></g><path d="M 2615.898438 2673.875 L 2619.101562 2696.375 C 2619.101562 2696.375 2574.84375 2732 2555.078125 2768.796875 C 2555.078125 2768.796875 2524.726562 2839.65625 2508.789062 2892.039062 C 2495.039062 2945.515625 2473.90625 2999.460938 2445.234375 3059.34375 C 2369.257812 3218.132812 2305.664062 3293.757812 2156.445312 3245.398438 C 2101.289062 3227.507812 2053.828125 3181.453125 2018.125 3118.054688 C 2088.632812 3076.414062 2136.757812 2999.539062 2136.757812 2913.09375 C 2136.757812 2809.65625 2067.890625 2720.007812 1974.21875 2687.9375 C 2040.703125 2594.265625 2112.226562 2498.484375 2199.570312 2430.203125 C 2209.609375 2422.390625 2219.609375 2414.617188 2229.609375 2406.804688 L 2490.664062 2406.804688 C 2490.664062 2406.804688 2541.25 2399.421875 2541.25 2428.132812 L 2523.320312 2665.398438 C 2523.359375 2665.632812 2523.398438 2665.867188 2523.398438 2666.101562 Z M 2615.898438 2673.875" fill="none" stroke="#181821" stroke-linecap="round" stroke-linejoin="round" stroke-miterlimit="10" stroke-width="30" transform="matrix(.1 0 0 -.1 0 425.2)"/><path d="M 2426.914062 2882.15625 C 2426.914062 2864.226562 2419.648438 2851.257812 2394.179688 2851.257812 C 2368.75 2851.257812 2328.828125 2852.039062 2328.828125 2869.96875 C 2328.828125 2887.859375 2368.4375 2914.617188 2393.90625 2914.617188 C 2419.335938 2914.617188 2426.914062 2900.085938 2426.914062 2882.15625 Z M 2426.914062 2882.15625" fill="none" stroke="#181821" stroke-linecap="round" stroke-linejoin="round" stroke-miterlimit="10" stroke-width="30" transform="matrix(.1 0 0 -.1 0 425.2)"/><path d="M 2299.6875 2928.367188 C 2299.6875 2928.367188 2349.6875 2966.21875 2419.0625 2966.21875" fill="none" stroke="#181821" stroke-linecap="round" stroke-linejoin="round" stroke-miterlimit="10" stroke-width="30" transform="matrix(.1 0 0 -.1 0 425.2)"/><g id="change1_16"><path d="M 178.855469 225.972656 L 181.433594 215.570312 L 236.066406 229.460938 L 237.53125 236.738281 L 178.855469 225.972656" fill="#f4f4f4"/></g><path d="M 1788.554688 1992.273438 L 1814.335938 2096.296875 L 2360.664062 1957.390625 L 2375.3125 1884.617188 Z M 1788.554688 1992.273438" fill="none" stroke="#181821" stroke-linecap="round" stroke-linejoin="round" stroke-miterlimit="10" stroke-width="30" transform="matrix(.1 0 0 -.1 0 425.2)"/><g id="change1_17"><path d="M 256.90625 307.566406 L 274.140625 307.566406 C 272.035156 286.183594 270.335938 260.828125 252.507812 247.710938 C 247.523438 244.042969 242.527344 240.382812 237.53125 236.738281 L 179.945312 225.074219 C 146.789062 251.421875 151.261719 325.984375 151.261719 325.984375 L 233.765625 325.984375 C 236.246094 315.535156 245.785156 307.566406 256.90625 307.566406" fill="#f4f4f4"/></g><path d="M 2569.0625 1176.335938 L 2741.40625 1176.335938 C 2720.351562 1390.164062 2703.359375 1643.71875 2525.078125 1774.890625 C 2475.234375 1811.570312 2425.273438 1848.171875 2375.3125 1884.617188 L 1799.453125 2001.257812 C 1467.890625 1737.78125 1512.617188 992.15625 1512.617188 992.15625 L 2337.65625 992.15625 C 2362.460938 1096.648438 2457.851562 1176.335938 2569.0625 1176.335938 Z M 2569.0625 1176.335938" fill="none" stroke="#181821" stroke-linecap="round" stroke-linejoin="round" stroke-miterlimit="10" stroke-width="30" transform="matrix(.1 0 0 -.1 0 425.2)"/><g id="change1_18"><path d="M 208.335938 325.984375 L 210.960938 296.589844 L 162.324219 296.589844 L 164.953125 325.984375 L 208.335938 325.984375" fill="#f4f4f4"/></g><g id="change2_1"><path d="M 166.207031 325.984375 L 163.691406 297.84375 L 209.59375 297.84375 L 207.078125 325.984375 L 209.589844 325.984375 L 212.207031 296.703125 C 212.238281 296.351562 212.121094 296.007812 211.886719 295.746094 C 211.648438 295.488281 211.3125 295.339844 210.960938 295.339844 L 162.324219 295.339844 C 161.972656 295.339844 161.636719 295.488281 161.402344 295.746094 C 161.164062 296.007812 161.046875 296.351562 161.078125 296.703125 L 163.695312 325.984375 L 166.207031 325.984375" fill="#181821"/></g><g id="change1_19"><path d="M 209.546875 312.414062 L 210.960938 296.589844 L 162.324219 296.589844 L 163.738281 312.414062 L 209.546875 312.414062" fill="#f4f4f4"/></g><g id="change2_2"><path d="M 164.882812 311.164062 L 208.402344 311.164062 L 209.59375 297.84375 L 163.691406 297.84375 Z M 209.546875 313.664062 L 163.738281 313.664062 C 163.089844 313.664062 162.550781 313.167969 162.492188 312.527344 L 161.078125 296.703125 C 161.046875 296.351562 161.164062 296.007812 161.402344 295.746094 C 161.636719 295.488281 161.972656 295.339844 162.324219 295.339844 L 210.960938 295.339844 C 211.3125 295.339844 211.648438 295.488281 211.886719 295.746094 C 212.121094 296.007812 212.238281 296.351562 212.207031 296.703125 L 210.792969 312.527344 C 210.734375 313.167969 210.195312 313.664062 209.546875 313.664062" fill="#181821"/></g><g id="change1_20"><path d="M 214.335938 301.160156 C 215.007812 295.53125 215.375 289.609375 215.375 283.488281 C 215.375 246.839844 202.511719 232.835938 186.644531 232.835938 C 170.773438 232.835938 157.910156 246.839844 157.910156 283.488281 C 157.910156 289.609375 158.277344 295.53125 158.949219 301.160156 L 214.335938 301.160156" fill="#f4f4f4"/></g><g id="change2_3"><path d="M 160.0625 299.90625 L 213.222656 299.90625 C 213.820312 294.53125 214.125 289.015625 214.125 283.488281 C 214.125 251.632812 204.363281 234.085938 186.644531 234.085938 C 168.921875 234.085938 159.160156 251.632812 159.160156 283.488281 C 159.160156 289.011719 159.464844 294.527344 160.0625 299.90625 Z M 214.335938 302.410156 L 158.949219 302.410156 C 158.316406 302.410156 157.78125 301.9375 157.707031 301.308594 C 157.011719 295.484375 156.660156 289.484375 156.660156 283.488281 C 156.660156 266 159.558594 252.628906 165.273438 243.742188 C 170.390625 235.789062 177.78125 231.585938 186.644531 231.585938 C 195.507812 231.585938 202.894531 235.789062 208.011719 243.742188 C 213.726562 252.628906 216.625 266 216.625 283.488281 C 216.625 289.492188 216.273438 295.484375 215.578125 301.308594 C 215.503906 301.9375 214.972656 302.410156 214.335938 302.410156" fill="#181821"/></g><g id="change1_21"><path d="M 202.351562 303.121094 C 202.351562 311.796875 195.316406 318.828125 186.644531 318.828125 C 177.96875 318.828125 170.9375 311.796875 170.9375 303.121094 C 170.9375 294.449219 177.96875 287.414062 186.644531 287.414062 C 195.316406 287.414062 202.351562 294.449219 202.351562 303.121094" fill="#f4f4f4"/></g><g id="change2_4"><path d="M 186.644531 288.664062 C 178.671875 288.664062 172.1875 295.152344 172.1875 303.121094 C 172.1875 311.09375 178.671875 317.574219 186.644531 317.574219 C 194.613281 317.574219 201.097656 311.09375 201.097656 303.121094 C 201.097656 295.152344 194.613281 288.664062 186.644531 288.664062 Z M 186.644531 320.078125 C 177.292969 320.078125 169.6875 312.472656 169.6875 303.121094 C 169.6875 293.769531 177.292969 286.164062 186.644531 286.164062 C 195.992188 286.164062 203.601562 293.769531 203.601562 303.121094 C 203.601562 312.472656 195.992188 320.078125 186.644531 320.078125" fill="#181821"/></g><g id="change1_22"><path d="M 196.261719 303.121094 C 196.261719 308.433594 191.957031 312.742188 186.644531 312.742188 C 181.328125 312.742188 177.023438 308.433594 177.023438 303.121094 C 177.023438 297.808594 181.328125 293.503906 186.644531 293.503906 C 191.957031 293.503906 196.261719 297.808594 196.261719 303.121094" fill="#f4f4f4"/></g><g id="change2_5"><path d="M 186.644531 294.753906 C 182.027344 294.753906 178.273438 298.507812 178.273438 303.121094 C 178.273438 307.734375 182.027344 311.488281 186.644531 311.488281 C 191.257812 311.488281 195.011719 307.734375 195.011719 303.121094 C 195.011719 298.507812 191.257812 294.753906 186.644531 294.753906 Z M 186.644531 313.992188 C 180.648438 313.992188 175.773438 309.113281 175.773438 303.121094 C 175.773438 297.128906 180.648438 292.253906 186.644531 292.253906 C 192.636719 292.253906 197.515625 297.128906 197.515625 303.121094 C 197.515625 309.113281 192.636719 313.992188 186.644531 313.992188" fill="#181821"/></g><g id="change2_6"><path d="M 186.644531 294.753906 C 185.953125 294.753906 185.390625 294.191406 185.390625 293.503906 L 185.390625 252.988281 C 185.390625 252.636719 185.542969 252.296875 185.808594 252.058594 L 201.511719 237.9375 C 202.027344 237.476562 202.816406 237.519531 203.28125 238.027344 C 203.742188 238.542969 203.699219 239.335938 203.1875 239.796875 L 187.894531 253.546875 L 187.894531 293.503906 C 187.894531 294.191406 187.335938 294.753906 186.644531 294.753906" fill="#181821"/></g><g id="change2_7"><path d="M 154.304688 325.984375 C 155.949219 312.328125 161.699219 301.980469 161.816406 301.777344 C 162.15625 301.175781 161.945312 300.410156 161.347656 300.070312 C 160.746094 299.730469 159.984375 299.9375 159.640625 300.539062 C 159.402344 300.957031 153.738281 311.003906 151.859375 324.675781 C 151.800781 325.105469 151.746094 325.542969 151.695312 325.984375 L 154.304688 325.984375" fill="#181821"/></g></g></svg>